<svg width="50" height="26" viewBox="0 0 50 26" fill="none" xmlns="http://www.w3.org/2000/svg">
<path d="M7.5 11.5C6.67157 11.5 6 12.1716 6 13C6 13.8284 6.67157 14.5 7.5 14.5V11.5ZM43.5607 14.0607C44.1464 13.4749 44.1464 12.5251 43.5607 11.9393L34.0147 2.3934C33.4289 1.80761 32.4792 1.80761 31.8934 2.3934C31.3076 2.97918 31.3076 3.92893 31.8934 4.51472L40.3787 13L31.8934 21.4853C31.3076 22.0711 31.3076 23.0208 31.8934 23.6066C32.4792 24.1924 33.4289 24.1924 34.0147 23.6066L43.5607 14.0607ZM7.5 14.5L42.5 14.5V11.5L7.5 11.5V14.5Z" fill="#939393"/>
</svg>
