<?xml version="1.0" encoding="UTF-8"?>
<svg width="132px" height="95px" viewBox="0 0 132 95" version="1.1" xmlns="http://www.w3.org/2000/svg" xmlns:xlink="http://www.w3.org/1999/xlink">
    <title>logo_small</title>
    <g id="logo_small" stroke="none" stroke-width="1" fill="none" fill-rule="evenodd">
        <g transform="translate(2.743220, 76.348121)" fill="#FFFFFF" fill-rule="nonzero" id="Shape">
            <path d="M0,17.634 L0,0.238 L10.49858,0.238 L10.49858,2.107 L2.10651,2.107 L2.10651,7.985 L9.95498,7.985 L9.95498,9.853 L2.10651,9.853 L2.10651,15.765 L10.63448,15.765 L10.63448,17.634 L0,17.634 Z M15.31468,0.238 L19.79948,7.475 L19.93538,7.475 L24.42018,0.238 L26.90038,0.238 L21.43028,8.936 L26.90038,17.634 L24.42018,17.634 L19.93538,10.533 L19.79948,10.533 L15.31468,17.634 L12.83438,17.634 L18.44038,8.936 L12.83438,0.238 L15.31468,0.238 Z M43.35958,5.674 L41.25308,5.674 C41.12848,5.069 40.91048,4.536 40.59908,4.078 C40.29328,3.619 39.91958,3.234 39.47788,2.922 C39.04188,2.605 38.55768,2.367 38.02538,2.209 C37.49308,2.05 36.93818,1.971 36.36058,1.971 C35.30728,1.971 34.35318,2.237 33.49808,2.769 C32.64868,3.302 31.97198,4.086 31.46808,5.122 C30.96978,6.159 30.72058,7.43 30.72058,8.936 C30.72058,10.442 30.96978,11.714 31.46808,12.75 C31.97198,13.786 32.64868,14.57 33.49808,15.103 C34.35318,15.635 35.30728,15.901 36.36058,15.901 C36.93818,15.901 37.49308,15.822 38.02538,15.663 C38.55768,15.505 39.04188,15.27 39.47788,14.958 C39.91958,14.641 40.29328,14.253 40.59908,13.795 C40.91048,13.33 41.12848,12.798 41.25308,12.198 L43.35958,12.198 C43.20108,13.087 42.91228,13.882 42.49318,14.585 C42.07418,15.287 41.55318,15.884 40.93038,16.377 C40.30748,16.864 39.60808,17.235 38.83228,17.49 C38.06218,17.744 37.23828,17.872 36.36058,17.872 C34.87698,17.872 33.55758,17.509 32.40238,16.785 C31.24718,16.06 30.33838,15.029 29.67578,13.693 C29.01328,12.356 28.68198,10.771 28.68198,8.936 C28.68198,7.101 29.01328,5.516 29.67578,4.179 C30.33838,2.843 31.24718,1.812 32.40238,1.088 C33.55758,0.363 34.87698,0 36.36058,0 C37.23828,0 38.06218,0.128 38.83228,0.383 C39.60808,0.637 40.30748,1.011 40.93038,1.504 C41.55318,1.991 42.07418,2.585 42.49318,3.288 C42.91228,3.984 43.20108,4.78 43.35958,5.674 Z M46.76358,17.634 L46.76358,0.238 L48.87008,0.238 L48.87008,7.985 L58.14548,7.985 L58.14548,0.238 L60.25198,0.238 L60.25198,17.634 L58.14548,17.634 L58.14548,9.853 L48.87008,9.853 L48.87008,17.634 L46.76358,17.634 Z M65.18278,17.634 L62.97428,17.634 L69.36178,0.238 L71.53628,0.238 L77.92368,17.634 L75.71528,17.634 L70.51698,2.99 L70.38108,2.99 L65.18278,17.634 Z M65.99818,10.839 L74.89988,10.839 L74.89988,12.707 L65.99818,12.707 L65.99818,10.839 Z M94.42748,0.238 L94.42748,17.634 L92.38898,17.634 L82.90968,3.976 L82.73978,3.976 L82.73978,17.634 L80.63328,17.634 L80.63328,0.238 L82.67188,0.238 L92.18508,13.931 L92.35498,13.931 L92.35498,0.238 L94.42748,0.238 Z M110.53378,5.674 C110.34778,5.102 110.10078,4.59 109.79478,4.137 C109.49478,3.678 109.13578,3.288 108.71678,2.965 C108.30278,2.642 107.83278,2.396 107.30678,2.226 C106.77978,2.056 106.20178,1.971 105.57378,1.971 C104.54278,1.971 103.60578,2.237 102.76178,2.769 C101.91878,3.302 101.24778,4.086 100.74878,5.122 C100.25078,6.159 100.00178,7.43 100.00178,8.936 C100.00178,10.442 100.25378,11.714 100.75778,12.75 C101.26178,13.786 101.94378,14.57 102.80478,15.103 C103.66578,15.635 104.63378,15.901 105.70978,15.901 C106.70578,15.901 107.58378,15.689 108.34278,15.264 C109.10678,14.834 109.70178,14.228 110.12678,13.446 C110.55678,12.659 110.77178,11.733 110.77178,10.669 L111.41778,10.805 L106.18478,10.805 L106.18478,8.936 L112.81078,8.936 L112.81078,10.805 C112.81078,12.237 112.50478,13.483 111.89278,14.542 C111.28778,15.601 110.44878,16.422 109.37878,17.005 C108.31478,17.583 107.09178,17.872 105.70978,17.872 C104.16978,17.872 102.81578,17.509 101.64978,16.785 C100.48878,16.06 99.58278,15.029 98.93178,13.693 C98.28578,12.356 97.96278,10.771 97.96278,8.936 C97.96278,7.56 98.14678,6.323 98.51478,5.224 C98.88878,4.12 99.41578,3.18 100.09478,2.404 C100.77478,1.628 101.57878,1.034 102.50778,0.621 C103.43578,0.207 104.45778,0 105.57378,0 C106.49078,0 107.34578,0.139 108.13878,0.417 C108.93778,0.688 109.64778,1.076 110.27078,1.58 C110.89978,2.079 111.42278,2.676 111.84178,3.373 C112.26178,4.063 112.54978,4.831 112.70878,5.674 L110.53378,5.674 Z M116.41878,17.634 L116.41878,0.238 L126.91678,0.238 L126.91678,2.107 L118.52478,2.107 L118.52478,7.985 L126.37378,7.985 L126.37378,9.853 L118.52478,9.853 L118.52478,15.765 L127.05278,15.765 L127.05278,17.634 L116.41878,17.634 Z"></path>
        </g>
        <polygon id="Path" fill="#FFFFFF" fill-rule="nonzero" points="55.0267176 1.66666667 55.0267176 11.7089601 27.7757768 11.7089601 27.7757768 28.8903248 55.0267176 28.8903248 55.0267176 39.0278059 27.7757768 39.0278059 27.7757768 68.1552163 15.1335878 68.1552163 15.1335878 1.66666667"></polygon>
        <path d="M93.8715596,2 C100.131838,2 105.218315,3.81448342 109.130989,7.44345025 C113.043663,11.0724171 115,15.7485087 115,21.4717251 C115,27.2588881 113.019708,31.942973 109.059123,35.52398 C105.098539,39.1049869 99.8763167,40.8954903 93.3924567,40.8954903 L80.9357798,40.8954903 L80.9357798,69 L68,69 L68,2 L93.8715596,2 Z M90.8680556,30 C94.3680556,30 97.0983796,29.2365039 99.0590278,27.7095116 C101.019676,26.1825193 102,23.9228792 102,20.9305913 C102,14.9768638 97.9814815,12 89.9444444,12 L81,12 L81,30 L90.8680556,30 Z" id="Shape" fill="#009421" fill-rule="nonzero"></path>
    </g>
</svg>